<?xml version="1.0" standalone="no"?>
<!DOCTYPE svg PUBLIC "-//W3C//DTD SVG 20010904//EN"
 "http://www.w3.org/TR/2001/REC-SVG-20010904/DTD/svg10.dtd">
<svg version="1.0" xmlns="http://www.w3.org/2000/svg"
 width="980.000000pt" height="980.000000pt" viewBox="0 0 980.000000 980.000000"
 preserveAspectRatio="xMidYMid meet">
<metadata>
Created by potrace 1.16, written by Peter Selinger 2001-2019
</metadata>
<g transform="translate(0.000000,980.000000) scale(0.100000,-0.100000)"
fill="#1CA3EC" stroke="none">
<path d="M4830 9778 c-81 -42 -80 -34 -81 -467 0 -219 -4 -381 -9 -379 -5 2
-51 58 -103 125 -75 97 -97 120 -107 110 -10 -10 -12 -8 -6 7 9 26 -38 87 -62
80 -14 -5 -14 -4 -3 4 20 14 -3 43 -27 35 -14 -4 -15 -3 -2 6 12 8 11 14 -10
38 -93 106 -138 127 -207 98 -79 -33 -119 -93 -109 -164 7 -50 52 -124 70
-114 6 3 8 3 4 -2 -8 -8 42 -79 50 -70 7 7 32 -15 32 -28 0 -6 -7 -2 -15 9 -8
10 -15 14 -15 7 0 -6 4 -15 10 -18 5 -3 35 -39 66 -80 31 -41 58 -75 60 -75 3
0 2 6 -2 13 -4 6 2 3 14 -7 25 -21 31 -36 7 -16 -27 22 -16 -2 22 -48 34 -41
37 -43 50 -26 7 10 13 13 13 8 0 -6 -5 -15 -11 -21 -9 -9 -2 -24 28 -60 21
-26 74 -94 117 -151 69 -90 80 -100 91 -86 7 10 11 27 8 38 -3 20 -3 20 6 1 5
-12 5 -25 -1 -32 -5 -7 -6 -18 -2 -24 4 -8 3 -9 -4 -5 -7 4 -12 3 -12 -3 0 -5
6 -14 13 -18 26 -15 49 -61 42 -84 -4 -12 -3 -19 1 -16 5 3 8 -158 6 -359 -2
-334 -6 -387 -27 -354 -4 6 -11 7 -17 4 -7 -4 -8 -2 -4 5 11 17 -12 41 -32 34
-13 -5 -14 -3 -5 7 9 9 -2 29 -50 89 -34 42 -64 78 -67 81 -3 3 -13 18 -23 33
-10 15 -23 25 -29 21 -7 -4 -8 -3 -4 5 10 15 -13 43 -27 34 -5 -3 -7 -2 -4 4
7 11 -106 158 -122 158 -5 0 -13 4 -18 9 -5 5 -3 6 5 2 20 -12 14 1 -24 51
-21 27 -41 47 -46 45 -5 -1 -7 1 -4 6 7 12 -54 83 -65 76 -6 -3 -8 -13 -4 -23
5 -12 4 -13 -6 -4 -10 10 -9 15 0 27 7 8 9 21 5 28 -20 34 -88 107 -95 103 -4
-3 -11 0 -15 6 -4 8 -3 9 4 5 20 -12 13 2 -24 50 -116 153 -130 168 -176 184
-106 39 -236 -86 -199 -190 15 -44 100 -152 117 -149 3 0 9 -3 12 -7 4 -4 1
-4 -5 0 -7 4 -13 5 -13 1 0 -13 239 -310 250 -310 5 0 12 -4 17 -9 5 -5 3 -6
-4 -2 -7 4 -13 5 -13 2 0 -7 91 -126 96 -126 2 0 1 8 -2 18 -5 14 -4 14 4 2 6
-8 8 -18 6 -22 -6 -9 77 -110 84 -103 3 3 16 -5 29 -17 19 -17 23 -18 23 -6 0
9 -5 19 -10 21 -6 3 -5 4 2 3 12 -2 21 -56 10 -56 -2 0 -13 11 -24 26 -11 14
-22 23 -25 20 -3 -3 17 -33 43 -66 27 -34 59 -76 72 -94 13 -17 28 -30 33 -28
6 1 8 -2 4 -8 -3 -5 -1 -10 4 -10 6 0 10 -3 9 -7 -5 -14 65 -93 75 -86 6 3 7
1 3 -6 -5 -7 7 -28 28 -51 20 -22 36 -43 36 -48 1 -4 16 -25 36 -47 20 -23 32
-32 28 -20 -8 21 -6 21 16 -9 10 -13 10 -17 3 -12 -20 11 -15 -2 13 -40 14
-18 30 -32 34 -29 5 3 12 0 16 -6 5 -8 3 -9 -5 -4 -10 6 -11 3 -2 -13 6 -11
17 -22 26 -26 8 -3 15 -12 15 -20 0 -8 6 -16 13 -18 9 -4 13 -103 15 -444 2
-380 0 -443 -13 -459 -9 -12 -13 -14 -10 -5 3 10 -33 54 -103 123 -101 101
-110 107 -125 92 -10 -9 -17 -12 -17 -6 0 5 8 14 17 20 14 8 15 12 4 25 -7 9
-10 16 -5 16 12 0 7 437 -6 482 -8 27 -15 36 -25 31 -11 -3 -13 -1 -10 10 4 9
-5 22 -27 35 -30 19 -65 23 -313 37 -154 10 -297 15 -319 12 -22 -3 -35 -3
-30 1 8 5 7 16 -1 35 -6 15 -15 24 -20 20 -4 -5 -5 -2 -1 4 4 7 2 22 -5 34 -9
18 -13 19 -21 8 -7 -10 -8 -9 -4 6 4 14 -24 78 -84 195 -49 96 -90 180 -90
185 0 6 -5 3 -11 -5 -9 -12 -10 -12 -5 3 7 23 -11 60 -26 51 -6 -4 -8 -3 -4 4
7 12 -13 62 -25 62 -4 0 -9 -5 -11 -12 -3 -8 -7 -6 -11 5 -3 9 -3 16 1 16 4
-1 10 -1 15 0 9 1 -22 63 -37 73 -6 4 -7 8 -3 8 5 0 -2 18 -14 40 -12 21 -26
37 -30 34 -5 -3 -6 2 -3 11 4 8 0 25 -8 38 -9 12 -16 24 -16 27 -1 3 -21 41
-44 85 -24 44 -50 95 -57 113 -12 28 -16 31 -30 20 -14 -11 -14 -11 -3 4 11
14 7 27 -27 90 -21 40 -44 72 -49 71 -5 -1 -9 5 -8 15 2 24 -69 57 -119 56
-42 -1 -100 -24 -77 -32 6 -2 12 -9 12 -15 0 -8 -4 -7 -12 1 -18 18 -24 15
-47 -21 -20 -33 -21 -46 -21 -596 0 -309 2 -566 5 -572 23 -36 -39 18 -180
159 -90 90 -169 161 -174 158 -6 -4 -10 160 -11 476 -1 530 1 514 -63 562 -40
29 -135 29 -174 -1 -15 -11 -27 -26 -25 -32 1 -6 -3 -10 -10 -9 -29 7 -37 -66
-37 -359 -1 -161 -3 -293 -5 -293 -2 0 -91 87 -199 194 -163 163 -201 196
-232 202 -38 7 -108 -9 -134 -29 -30 -25 -61 -88 -61 -124 1 -43 11 -65 57
-117 33 -37 49 -46 40 -23 -3 8 -1 20 4 28 6 9 8 4 5 -18 -3 -26 4 -38 34 -68
20 -19 40 -32 45 -28 4 5 5 3 2 -3 -3 -6 43 -60 103 -120 60 -60 110 -112 110
-116 0 -5 -133 -8 -295 -8 -238 0 -303 -3 -331 -15 -41 -17 -76 -54 -69 -73 3
-8 0 -10 -7 -6 -8 5 -9 2 -5 -9 3 -9 2 -19 -3 -22 -28 -17 20 -155 54 -155 13
0 5 23 -11 36 -10 7 -13 14 -7 14 17 0 36 -26 32 -46 -2 -12 6 -20 22 -25 14
-4 232 -7 484 -8 l459 -1 173 -172 c95 -95 172 -174 170 -175 -2 -2 -257 -5
-568 -6 l-565 -2 -36 -28 c-47 -35 -70 -80 -70 -133 0 -62 29 -103 98 -139 33
-17 102 -53 153 -80 71 -37 95 -46 101 -36 6 10 10 9 14 -4 4 -9 3 -13 -3 -10
-6 3 -10 4 -10 1 0 -11 162 -86 172 -80 6 4 8 2 5 -3 -8 -13 139 -86 155 -77
6 4 8 3 5 -3 -3 -5 12 -20 33 -32 22 -12 40 -19 40 -14 0 4 4 3 8 -3 9 -15
116 -69 107 -55 -9 16 8 13 31 -4 16 -13 16 -14 2 -9 -35 12 -17 -4 27 -25 26
-12 51 -18 57 -15 6 4 8 3 5 -3 -8 -12 61 -46 75 -37 7 4 8 2 4 -4 -8 -14 190
-116 206 -106 7 4 8 3 4 -4 -4 -7 -3 -12 3 -12 6 0 8 -6 5 -14 -8 -21 26 -574
37 -604 16 -41 41 -65 51 -50 6 9 7 5 3 -9 -10 -38 42 -45 318 -41 136 2 243
1 237 0 -6 -2 42 -56 105 -119 63 -64 114 -118 111 -120 -9 -9 -880 -2 -891 7
-7 5 -16 6 -20 2 -5 -4 -5 -2 -2 4 3 6 -35 41 -86 80 -105 79 -100 75 -189
147 -50 40 -74 53 -96 52 -24 -1 -28 2 -27 20 3 25 -58 80 -77 69 -6 -4 -8 -3
-5 3 7 11 7 10 -126 116 -54 43 -101 75 -106 73 -5 -3 -15 2 -22 12 -13 15
-12 16 4 3 9 -7 17 -11 17 -9 0 7 -206 168 -214 168 -4 0 -4 -5 0 -11 5 -8 1
-8 -14 0 -12 6 -24 17 -28 24 -5 8 -2 7 9 -2 10 -8 20 -12 22 -9 3 3 -14 22
-39 42 -30 24 -50 34 -63 30 -12 -4 -14 -3 -6 3 9 6 -1 19 -33 43 -25 19 -51
41 -59 48 -12 11 -19 10 -42 -4 l-28 -16 23 19 23 19 -23 20 c-86 74 -153 114
-193 114 -90 0 -176 -103 -158 -191 3 -16 22 -48 42 -71 33 -37 39 -40 59 -29
13 7 22 8 22 2 0 -5 -8 -11 -17 -13 -12 -2 3 -19 49 -56 37 -29 70 -51 75 -50
11 4 54 -27 47 -34 -9 -9 64 -60 75 -53 7 4 8 -1 4 -11 -5 -14 -3 -16 11 -11
9 4 15 3 11 -2 -7 -13 66 -71 84 -68 9 1 16 -4 16 -11 0 -12 148 -132 163
-132 4 0 0 5 -8 11 -13 9 -13 10 0 6 8 -2 15 -10 15 -18 0 -8 9 -13 18 -12 10
0 16 -2 13 -5 -9 -8 25 -42 41 -42 7 0 12 -6 10 -12 -1 -7 6 -12 15 -12 10 1
15 -3 12 -8 -4 -6 1 -8 12 -4 11 3 26 1 34 -5 12 -8 9 -9 -10 -4 -23 5 -22 3
10 -25 45 -40 149 -120 156 -120 3 0 2 5 -2 12 -4 7 -3 8 5 4 6 -4 9 -11 7
-15 -3 -4 15 -23 39 -42 24 -18 43 -38 42 -42 -1 -4 -176 -8 -389 -7 l-387 0
-33 30 c-31 28 -56 40 -44 21 3 -5 -1 -14 -8 -20 -10 -9 -16 -9 -21 -1 -4 6
-4 14 -1 17 3 4 6 1 6 -6 0 -7 4 -10 9 -7 25 16 -18 68 -49 59 -12 -4 -12 -3
-2 5 11 7 7 14 -18 32 -24 17 -34 20 -40 10 -5 -9 -9 -9 -14 -1 -4 6 -2 11 5
11 7 0 5 8 -6 20 -19 21 -41 28 -29 8 4 -7 3 -8 -5 -4 -6 4 -9 11 -6 15 8 13
-32 44 -47 35 -7 -4 -10 -3 -5 1 11 12 -33 55 -49 48 -8 -3 -14 -1 -12 4 2 6
-23 31 -54 57 -54 44 -76 57 -63 37 3 -5 1 -12 -4 -15 -5 -4 -8 2 -6 11 1 10
-7 26 -17 37 -17 16 -22 16 -29 5 -8 -11 -9 -11 -7 3 4 21 -167 162 -184 152
-6 -4 -8 -3 -5 4 11 17 -82 72 -122 72 -116 0 -198 -129 -143 -227 21 -39 78
-87 92 -78 6 4 9 2 8 -3 -4 -12 73 -81 90 -82 6 0 12 -4 12 -9 0 -5 44 -42 97
-82 99 -75 120 -89 110 -72 -3 5 -1 15 4 23 7 11 8 7 5 -13 -4 -23 2 -32 41
-62 l46 -35 -370 0 c-384 0 -416 -3 -460 -43 -34 -30 -55 -104 -43 -147 16
-56 31 -79 69 -103 35 -22 43 -22 411 -24 206 -1 380 -2 385 -3 6 0 1 -6 -11
-13 -43 -25 -143 -110 -139 -117 3 -4 -3 -14 -12 -21 -12 -10 -14 -10 -9 -1
14 23 -5 12 -72 -41 -37 -29 -92 -72 -122 -94 -119 -89 -150 -127 -150 -186 0
-51 21 -98 59 -130 34 -28 57 -36 46 -14 -4 6 0 4 9 -7 12 -15 23 -17 60 -12
34 5 66 24 142 82 53 41 105 84 115 95 10 11 19 19 21 17 2 -2 20 11 39 27 19
17 28 26 19 20 -13 -9 -13 -8 -1 7 7 10 18 15 23 12 6 -4 13 -3 17 2 3 5 23
22 44 38 21 15 36 30 33 33 -3 3 -13 0 -23 -8 -11 -9 -14 -10 -9 -2 4 7 16 18
28 24 15 8 19 8 14 0 -12 -19 4 -12 45 21 29 23 36 34 27 41 -9 6 -7 7 5 3 10
-3 25 0 33 8 7 8 19 16 26 18 11 4 11 8 0 20 -10 13 -9 18 5 29 16 13 17 12 5
-3 -21 -26 4 -32 38 -8 17 12 27 26 24 32 -4 7 -2 8 5 4 7 -4 36 14 72 43 33
28 68 55 77 60 14 8 14 11 2 28 -14 16 -13 17 1 5 13 -9 104 -12 408 -10 215
2 391 0 391 -3 0 -3 -9 -14 -20 -24 -11 -10 -17 -22 -14 -26 3 -5 -3 -6 -12
-2 -12 4 -15 3 -10 -5 4 -8 0 -12 -11 -12 -18 0 -98 -66 -98 -80 0 -5 -4 -12
-9 -17 -5 -5 -6 -3 -2 5 11 19 -9 14 -28 -7 -17 -18 -17 -20 1 -30 23 -13 8
-14 -17 -1 -13 7 -21 5 -31 -7 -12 -14 -12 -16 0 -8 10 5 12 4 7 -4 -4 -6 -11
-9 -16 -6 -11 7 -96 -59 -93 -73 2 -7 -4 -9 -13 -5 -13 5 -15 2 -10 -15 5 -15
2 -22 -13 -27 -13 -4 -18 -12 -15 -23 5 -15 4 -15 -5 -2 -9 12 -12 13 -20 1
-7 -11 -9 -11 -13 0 -3 8 -27 -6 -71 -41 -37 -29 -67 -56 -67 -58 0 -2 8 2 18
9 15 13 16 12 3 -3 -7 -10 -17 -15 -22 -12 -5 3 -36 -16 -69 -42 -44 -34 -57
-50 -48 -56 10 -7 10 -8 -2 -7 -31 3 -42 -1 -37 -15 4 -9 1 -13 -7 -10 -7 3
-23 -6 -37 -18 -14 -13 -36 -31 -49 -41 -14 -10 -20 -16 -14 -13 6 3 11 -1 11
-9 0 -11 -4 -12 -14 -4 -16 14 -47 -7 -36 -24 3 -5 2 -7 -4 -4 -13 8 -113 -68
-142 -109 -27 -38 -32 -105 -11 -145 16 -31 51 -69 63 -69 6 0 1 10 -10 22
-11 13 -23 30 -27 38 -4 8 2 3 14 -13 12 -15 25 -25 30 -22 4 2 7 -5 6 -17 -1
-29 49 -43 103 -28 51 14 208 139 189 152 -9 7 -7 8 8 4 14 -4 32 4 60 27 21
18 60 48 86 67 26 18 45 38 41 44 -3 6 -3 8 2 4 8 -8 79 42 70 50 -7 7 15 32
28 32 6 0 2 -7 -9 -15 -10 -8 -14 -14 -9 -14 6 0 30 17 54 38 l43 38 -38 -3
c-26 -2 -34 0 -24 6 9 5 29 7 45 5 38 -4 95 38 90 66 -3 12 2 19 12 19 13 0
13 -3 3 -15 -22 -27 2 -16 47 21 24 19 41 40 38 45 -4 5 2 6 11 2 14 -5 16 -3
11 11 -4 10 -3 15 3 11 6 -4 33 10 60 31 36 27 46 40 37 47 -8 6 -6 7 6 3 12
-4 46 17 110 66 51 40 100 80 110 90 10 10 21 18 25 18 4 1 25 17 47 37 22 20
31 30 20 22 -18 -13 -19 -13 -6 3 7 10 17 15 22 12 7 -4 88 54 119 86 3 3 20
15 38 28 l33 24 440 1 c241 1 439 -1 439 -4 0 -4 -23 -29 -52 -57 -41 -40 -49
-53 -40 -64 8 -11 7 -14 -8 -14 -10 0 -16 5 -13 11 3 5 -10 -6 -30 -24 -21
-19 -37 -40 -37 -45 0 -6 5 -4 10 4 7 12 9 11 8 -5 -1 -12 -9 -21 -19 -21 -10
0 -15 5 -12 11 4 5 -5 0 -18 -12 -23 -21 -33 -22 -281 -25 -255 -3 -257 -3
-282 -27 -14 -13 -23 -28 -19 -34 3 -6 1 -7 -4 -4 -13 8 -28 -9 -38 -42 -5
-16 -4 -21 4 -17 6 4 11 3 11 -3 0 -5 -5 -11 -10 -13 -9 -3 -39 -425 -40 -546
0 -31 -4 -34 -125 -94 -84 -42 -120 -65 -112 -71 8 -6 6 -7 -6 -3 -21 7 -138
-50 -134 -66 1 -6 -5 -13 -13 -15 -13 -4 -13 -3 0 6 33 23 -9 9 -77 -26 -48
-25 -68 -40 -60 -46 8 -6 6 -7 -6 -3 -22 7 -67 -13 -67 -30 0 -7 -4 -16 -10
-19 -6 -4 -7 1 -3 11 5 14 3 15 -17 4 -16 -9 -19 -14 -11 -20 9 -5 8 -9 -4
-13 -11 -5 -14 -3 -9 5 5 8 2 9 -10 5 -10 -4 -20 -7 -22 -7 -3 0 -2 -4 1 -10
3 -6 -1 -7 -10 -4 -8 4 -25 0 -38 -8 -12 -9 -24 -15 -27 -15 -3 0 -16 -5 -29
-12 -16 -9 -20 -15 -12 -21 9 -5 8 -9 -4 -13 -11 -5 -14 -3 -9 5 5 8 2 9 -10
5 -10 -4 -20 -7 -22 -7 -3 0 -2 -5 2 -12 4 -7 3 -8 -4 -4 -17 10 -104 -38 -91
-51 8 -8 7 -13 -2 -18 -7 -5 -10 -4 -5 3 17 28 -30 13 -144 -46 -154 -80 -161
-84 -156 -98 2 -6 0 -17 -6 -25 -8 -11 -9 -10 -4 3 10 32 -5 19 -20 -17 -31
-74 -9 -152 54 -195 l36 -25 555 -2 c306 -1 562 -2 570 -3 10 0 8 -7 -8 -21
-16 -15 -19 -24 -12 -29 9 -5 7 -11 -4 -20 -13 -11 -15 -10 -9 4 10 25 -5 19
-43 -19 -36 -36 -39 -60 -6 -34 15 11 15 10 -1 -9 -14 -16 -22 -19 -27 -11 -5
8 -46 -26 -119 -99 l-111 -112 -460 0 c-379 0 -466 -3 -494 -14 -36 -15 -44
-30 -22 -40 6 -3 2 -3 -9 -1 -18 5 -24 -2 -38 -35 -19 -48 -22 -95 -4 -84 7 4
8 3 4 -5 -14 -22 13 -76 51 -101 l36 -25 310 -5 310 -5 -191 -192 c-106 -106
-197 -204 -202 -218 -20 -54 -3 -131 37 -166 29 -27 80 -49 109 -49 64 0 170
79 158 118 -5 14 -4 14 4 3 8 -12 39 14 152 127 77 78 146 142 153 142 9 0 11
-67 9 -291 -3 -282 -2 -292 19 -335 25 -48 82 -84 135 -84 46 1 112 35 134 72
19 32 20 49 20 500 l0 467 158 157 c90 89 156 162 154 171 -2 8 1 12 7 9 5 -4
12 -2 16 4 4 6 10 8 15 5 5 -3 9 -259 9 -569 1 -311 4 -572 7 -580 3 -9 10
-16 15 -16 5 0 9 -6 9 -14 0 -18 47 -49 62 -40 7 4 8 3 4 -4 -5 -9 8 -12 46
-12 61 0 100 17 104 44 1 10 8 24 15 30 9 8 9 6 0 -11 -6 -13 -8 -23 -4 -23
14 0 64 92 59 107 -3 8 -1 11 4 8 12 -7 122 213 114 227 -4 6 -3 8 3 5 13 -8
74 118 67 140 -5 14 -4 15 4 4 7 -10 24 16 67 100 32 63 80 156 107 208 27 51
47 99 44 107 -3 7 0 16 6 20 7 4 8 3 4 -4 -4 -7 -5 -12 -2 -12 11 0 86 162 79
173 -3 5 -1 7 5 4 10 -7 82 125 82 149 0 7 47 14 133 18 72 4 155 9 182 11 28
2 104 7 169 10 136 8 182 22 217 68 24 32 24 36 27 287 3 243 4 256 24 277 16
17 18 26 10 36 -8 10 -7 13 8 13 10 0 16 -5 12 -11 -3 -5 2 -4 11 4 9 7 14 18
10 24 -3 5 -1 7 4 4 17 -11 48 30 35 46 -8 10 -6 13 8 13 10 0 16 -5 13 -11
-3 -5 10 6 30 24 21 19 37 39 37 44 0 6 -11 -2 -24 -16 -14 -15 -28 -22 -31
-17 -8 13 4 32 16 25 13 -9 11 9 -3 25 -11 12 -10 12 4 1 13 -10 22 -10 39 -1
17 10 20 10 13 -2 -6 -10 -5 -11 8 -1 8 7 18 10 21 6 4 -3 7 -198 7 -433 l0
-428 -60 -78 c-33 -42 -57 -81 -54 -86 3 -5 2 -7 -3 -6 -9 3 -13 -5 -13 -24 0
-9 4 -8 10 2 5 8 10 11 10 7 0 -11 -29 -67 -36 -67 -2 0 0 9 6 20 16 30 2 45
-21 24 -10 -9 -19 -22 -19 -28 0 -6 7 -2 15 8 8 11 15 15 15 9 0 -12 -31 -40
-37 -33 -5 6 -103 -111 -103 -123 0 -4 6 -5 13 -1 6 4 5 -1 -4 -12 -9 -10 -19
-26 -22 -34 -5 -13 -6 -13 -6 1 -1 8 2 19 7 25 4 5 -10 -9 -30 -31 -36 -38
-50 -63 -28 -50 6 3 7 -1 3 -10 -3 -10 -8 -12 -12 -6 -8 12 -141 -152 -141
-174 0 -10 -5 -13 -12 -9 -8 5 -9 2 -5 -10 4 -9 3 -15 -2 -12 -5 3 -25 -14
-44 -37 -29 -36 -33 -46 -24 -62 9 -17 8 -18 -5 -7 -12 10 -18 10 -27 -2 -13
-15 1 -65 22 -78 9 -6 9 -8 -1 -8 -7 0 -15 7 -19 16 -3 9 -12 13 -22 9 -13 -5
-14 -4 -3 6 20 22 13 33 -8 14 -12 -10 -18 -25 -15 -32 2 -8 1 -12 -4 -9 -12
8 -47 -34 -36 -42 13 -9 16 -44 4 -36 -5 3 -9 12 -9 21 0 13 -3 13 -15 3 -8
-7 -15 -19 -15 -26 0 -8 -4 -14 -9 -14 -4 0 -25 -21 -44 -48 -20 -26 -42 -53
-48 -61 -27 -31 -79 -102 -79 -107 0 -3 4 -3 9 1 5 3 12 1 16 -4 3 -6 -3 -8
-14 -6 -14 2 -31 -10 -55 -40 -36 -43 -45 -62 -26 -50 6 3 7 -1 3 -10 -4 -12
-8 -13 -13 -4 -5 8 -17 -2 -36 -31 -40 -60 -40 -122 -1 -173 15 -20 33 -37 38
-37 6 0 8 4 4 9 -3 5 -1 12 4 16 6 3 8 -4 6 -15 -8 -41 95 -55 151 -21 18 11
58 52 90 93 32 40 75 94 96 120 25 31 36 53 32 65 -4 13 -3 14 3 5 7 -10 21 2
53 45 24 32 46 60 50 63 3 3 22 25 42 50 34 42 35 47 20 58 -15 10 -15 11 2 5
20 -7 47 19 42 40 -2 7 -1 8 2 4 5 -9 32 11 32 25 0 5 -5 6 -12 2 -7 -4 -8 -3
-4 5 4 6 11 9 15 6 10 -6 53 39 49 52 -2 5 14 27 36 47 31 31 36 40 25 48 -11
8 -11 9 2 5 11 -4 28 8 48 33 17 21 31 42 31 47 0 4 -5 1 -11 -7 -9 -13 -10
-13 -6 0 2 8 9 15 15 15 6 0 26 18 44 40 72 86 110 146 74 116 -11 -9 -15 -8
-20 5 -9 23 -7 34 4 34 5 0 7 -7 4 -15 -5 -11 0 -14 16 -12 28 4 51 33 43 55
-4 12 -1 11 10 -3 14 -17 16 -70 17 -402 l0 -383 -34 -38 c-28 -31 -33 -41
-23 -52 10 -10 9 -12 -5 -7 -18 6 -43 -17 -34 -31 3 -6 -2 -16 -12 -23 -16
-13 -16 -12 -3 6 14 19 14 19 -4 3 -15 -14 -17 -20 -7 -30 7 -7 12 -16 12 -22
0 -5 -6 -2 -13 8 -13 17 -17 14 -60 -43 -48 -63 -56 -78 -35 -65 9 5 9 3 -1
-9 -7 -9 -17 -15 -21 -12 -5 3 -50 -49 -102 -116 -51 -67 -103 -133 -116 -147
-65 -74 -74 -90 -63 -111 6 -11 11 -23 11 -28 -1 -4 -6 2 -13 15 -13 22 -13
22 -48 -20 -54 -65 -72 -96 -65 -113 3 -9 2 -13 -4 -10 -6 4 -10 -9 -10 -30 0
-105 116 -182 217 -144 34 12 83 58 83 76 0 7 5 13 11 13 6 0 8 7 5 16 -3 8
-2 13 3 9 5 -3 32 24 60 59 46 57 50 67 41 91 -12 33 -13 45 -1 26 8 -13 12
-13 28 -1 16 13 16 12 -1 -8 -11 -12 -17 -25 -14 -28 10 -10 47 47 41 64 -3
13 -2 14 4 4 8 -10 16 -5 36 22 15 19 27 40 27 46 0 6 6 13 14 16 7 3 28 25
46 50 19 24 40 44 47 44 8 0 11 -4 8 -10 -8 -12 -7 -744 1 -765 3 -8 11 -12
17 -8 6 3 7 1 3 -5 -10 -17 24 -50 69 -65 49 -16 116 -8 153 20 56 41 57 45
60 455 1 208 6 378 10 378 4 0 13 -9 20 -20 7 -12 17 -18 22 -15 10 6 72 -66
63 -74 -3 -3 -8 0 -10 7 -7 20 -52 69 -53 57 0 -6 26 -43 58 -82 33 -40 67
-82 76 -95 9 -13 14 -17 10 -9 -5 10 -3 12 5 7 7 -5 10 -10 7 -13 -9 -9 14
-44 25 -38 5 4 8 1 7 -7 -2 -7 2 -12 8 -11 7 1 11 -5 10 -14 0 -9 5 -18 11
-20 9 -3 12 5 9 26 -2 17 1 28 5 25 5 -3 7 -21 4 -40 -3 -24 -1 -33 7 -28 7 4
8 3 4 -4 -9 -14 64 -109 107 -140 33 -23 127 -32 127 -11 0 5 4 7 10 4 11 -7
71 48 89 82 30 57 5 133 -63 196 -22 21 -41 43 -41 50 0 20 -33 60 -44 53 -10
-7 -55 34 -46 42 2 3 14 -6 25 -19 l21 -24 -12 25 c-7 14 -36 53 -66 88 -29
35 -53 66 -53 70 -1 4 -17 25 -36 47 -20 22 -34 35 -31 30 3 -6 -3 -11 -14
-11 -19 0 -20 1 -2 14 17 13 17 14 -4 32 -13 10 -23 22 -23 27 0 4 -12 22 -28
38 -15 17 -47 56 -71 88 -24 31 -46 57 -48 57 -3 0 1 -8 8 -17 13 -16 12 -17
-3 -4 -10 7 -15 17 -12 22 4 8 -10 30 -64 99 -2 3 -10 -4 -18 -14 -8 -11 -14
-15 -14 -9 0 7 5 15 11 18 6 4 8 13 5 21 -7 19 -9 774 -2 781 3 4 15 -5 27
-18 11 -13 26 -24 32 -24 5 0 12 -7 14 -15 4 -13 3 -13 -6 0 -6 8 -11 10 -11
4 0 -15 27 -37 32 -27 3 4 3 2 1 -5 -4 -16 106 -158 119 -154 5 1 7 -2 4 -7
-9 -13 44 -72 56 -64 7 3 8 1 4 -5 -4 -7 -2 -17 3 -24 6 -7 27 -33 47 -58 21
-25 41 -44 46 -42 5 1 7 -2 3 -7 -5 -8 120 -181 131 -181 2 0 8 15 13 32 l9
33 -1 -37 c-1 -20 -5 -34 -9 -31 -5 2 -8 -1 -8 -7 0 -6 7 -13 15 -16 8 -4 15
-10 15 -15 0 -4 32 -49 71 -98 63 -79 74 -89 91 -80 11 6 22 8 26 5 3 -3 1 -6
-4 -6 -5 0 -15 -4 -23 -9 -15 -10 -16 -9 87 -128 77 -90 181 -86 251 9 37 50
39 88 9 145 -33 60 -114 164 -121 156 -4 -3 -7 -1 -7 5 0 21 -122 172 -133
165 -5 -3 -7 -1 -3 5 6 10 -26 57 -143 205 -48 60 -74 87 -55 55 5 -9 2 -9 -9
1 -18 15 -23 26 -7 16 15 -9 12 11 -3 24 -8 6 -18 7 -22 3 -5 -4 -5 -2 -2 4 5
9 -106 164 -118 164 -1 0 -1 -12 1 -28 2 -16 1 -19 -2 -7 -4 11 -11 26 -18 34
-8 12 -8 13 2 7 31 -18 2 27 -61 98 -16 17 -26 25 -22 18 12 -23 -3 -12 -21
16 -17 26 -17 27 1 12 11 -9 8 0 -9 22 -18 25 -33 35 -44 31 -14 -4 -15 -3 -2
6 12 8 11 14 -10 38 -14 15 -27 30 -30 33 -3 3 -16 20 -29 38 -12 18 -27 30
-32 27 -5 -4 -6 1 -3 9 3 9 2 16 -4 16 -5 0 -26 25 -46 56 -21 31 -40 53 -43
50 -4 -3 -12 -1 -20 5 -9 9 -13 8 -13 0 0 -6 -5 -11 -12 -11 -9 0 -9 3 0 12 9
9 7 15 -6 25 -13 10 -13 13 -2 11 8 -2 23 -12 33 -23 18 -20 18 -20 7 3 -6 13
-18 26 -25 28 -12 5 -14 79 -15 446 0 242 -3 444 -6 449 -3 5 -1 9 3 9 5 0 61
-52 126 -115 l117 -115 0 -248 c1 -175 4 -253 13 -268 24 -42 53 -70 82 -81
17 -7 165 -19 330 -29 236 -13 304 -20 318 -32 9 -8 17 -19 17 -25 0 -5 -9 1
-21 14 -19 23 -19 22 2 -18 12 -23 27 -39 32 -36 6 3 7 1 3 -5 -6 -11 78 -192
90 -192 3 0 3 7 0 16 -3 9 -2 12 5 9 5 -4 7 -15 4 -25 -8 -26 38 -113 53 -98
8 8 10 6 6 -9 -6 -23 113 -266 127 -257 5 3 6 -2 3 -10 -9 -22 6 -42 18 -25 8
11 8 10 4 -4 -7 -22 100 -240 114 -232 5 3 7 0 5 -8 -7 -18 53 -139 65 -132 6
4 7 -1 3 -11 -5 -13 -3 -15 7 -9 8 5 11 4 6 -3 -8 -13 14 -63 25 -56 5 3 6 -3
2 -12 -4 -11 -3 -15 5 -10 6 3 14 1 18 -5 4 -8 3 -9 -4 -5 -22 13 -12 -11 23
-56 54 -72 141 -89 214 -44 73 47 71 26 71 659 0 417 3 568 12 573 7 5 8 3 3
-6 -5 -8 49 -68 164 -184 l172 -172 -1 -468 c0 -460 0 -469 21 -502 38 -62
121 -87 194 -59 42 16 45 18 40 48 -4 23 -3 28 4 17 5 -8 7 -18 5 -22 -3 -4
-1 -8 4 -8 4 0 16 16 25 35 15 31 17 75 17 340 0 276 5 338 24 289 3 -8 11
-12 17 -8 7 4 9 3 6 -3 -7 -10 335 -354 370 -372 48 -24 127 -5 172 42 13 15
20 31 16 38 -5 8 -4 10 3 5 12 -7 21 20 21 59 -1 64 -13 81 -200 269 -104 104
-189 193 -189 198 0 4 130 8 290 8 244 0 296 3 330 16 31 13 39 20 35 34 -3
10 -1 21 4 25 7 3 8 0 5 -9 -12 -31 14 -15 30 18 24 52 21 114 -9 159 -47 69
-33 67 -544 67 l-460 0 -43 38 c-24 21 -102 98 -175 171 -87 87 -137 130 -145
125 -9 -5 -10 -4 -2 5 8 8 161 12 580 14 552 2 570 3 595 22 49 36 71 80 71
136 0 29 -5 55 -12 59 -6 4 -11 10 -11 14 3 18 0 20 -10 6 -8 -12 -9 -11 -5 6
7 24 -18 44 -106 89 -56 27 -58 28 -78 10 -11 -10 -20 -15 -20 -10 0 4 7 13
17 20 14 10 8 16 -43 42 -32 17 -120 62 -194 100 -247 128 -265 137 -279 134
-7 -1 -10 2 -7 8 4 6 -5 13 -20 17 -14 4 -51 22 -82 41 -31 18 -63 31 -71 28
-9 -3 -12 -3 -8 2 5 4 -11 17 -35 29 -24 11 -106 54 -184 94 l-141 73 -7 141
c-9 195 -16 300 -23 376 -4 36 -5 72 -4 81 3 24 -41 80 -79 100 -31 17 -60 19
-280 19 l-246 0 -109 109 c-60 60 -113 108 -116 105 -4 -2 -6 4 -5 13 3 19 62
37 72 22 3 -5 187 -9 410 -9 342 0 408 -2 420 -15 8 -8 22 -12 32 -9 13 5 14
4 4 -4 -11 -7 -7 -14 17 -31 17 -12 36 -19 42 -15 7 4 9 3 6 -3 -10 -16 114
-114 135 -108 9 3 19 1 23 -4 4 -7 -1 -8 -12 -4 -17 6 -17 5 1 -15 20 -24 42
-30 30 -9 -4 7 -3 9 2 4 5 -5 9 -12 9 -17 0 -4 20 -24 45 -44 25 -20 52 -42
60 -49 76 -66 112 -89 122 -79 9 9 7 12 -7 12 -10 0 -16 3 -12 6 3 4 14 4 23
0 12 -5 14 -10 5 -19 -8 -11 9 -29 79 -85 49 -40 94 -72 100 -72 5 0 10 -5 10
-11 0 -6 7 -9 14 -6 10 4 13 1 9 -9 -5 -13 8 -19 30 -15 5 1 6 -2 3 -7 -3 -5
13 -22 35 -38 22 -16 75 -57 117 -91 75 -62 108 -80 81 -45 -13 15 -12 16 3 4
9 -8 15 -19 13 -25 -5 -16 81 -78 98 -71 13 5 46 -23 45 -40 0 -4 22 -26 49
-47 26 -22 59 -49 72 -60 71 -60 149 -60 211 0 53 52 68 106 46 166 -10 26
-32 56 -50 70 -32 25 -52 32 -42 17 2 -4 -4 -8 -15 -8 -18 0 -18 2 -5 12 14
10 10 16 -28 48 -42 34 -63 46 -53 29 3 -5 -15 -8 -40 -9 -31 0 -40 2 -29 8 9
5 20 7 25 4 5 -4 16 -3 25 0 25 10 -1 36 -28 29 -14 -4 -17 -3 -8 3 17 11 -21
47 -39 36 -7 -4 -10 -3 -6 3 4 6 -27 37 -69 69 -42 33 -103 81 -136 108 -48
39 -62 46 -70 35 -8 -11 -9 -11 -5 2 6 17 -10 39 -26 39 -5 0 -3 -8 4 -17 13
-16 12 -17 -3 -4 -10 7 -16 17 -13 21 7 11 -22 33 -35 25 -6 -4 -9 -1 -8 5 3
11 -157 148 -174 149 -15 2 -3 -24 17 -36 11 -7 16 -12 10 -12 -19 -1 -40 18
-40 37 0 23 -7 30 -117 115 -49 38 -88 72 -88 76 0 14 36 19 55 9 11 -7 25 -7
42 1 16 7 22 8 18 1 -5 -8 94 -11 327 -11 368 1 369 1 362 -10 -2 -4 53 -52
123 -106 157 -121 171 -132 274 -213 183 -144 199 -156 183 -127 -4 7 -3 9 2
4 5 -5 9 -12 9 -17 0 -4 20 -24 45 -44 25 -20 62 -51 83 -69 69 -57 130 -71
185 -43 32 17 69 55 74 76 2 8 7 18 12 22 13 9 12 89 -2 115 -16 30 -210 185
-222 178 -6 -4 -9 -1 -8 7 2 8 -4 12 -16 10 -10 -2 -15 1 -12 7 7 11 -40 51
-60 51 -8 0 -14 7 -14 16 0 10 -5 14 -16 10 -8 -3 -12 -2 -9 4 3 5 -31 37 -75
71 -44 34 -80 63 -80 63 0 1 159 0 352 -1 362 -1 437 4 471 35 25 22 57 96 57
130 -1 36 -33 98 -49 94 -7 -1 -10 2 -6 8 4 6 -13 19 -39 30 -42 19 -66 20
-417 20 -204 -1 -374 2 -377 5 -3 3 2 5 11 5 21 0 79 49 71 62 -3 5 -13 7 -23
3 -12 -5 -13 -4 -4 6 10 10 15 9 27 0 13 -11 19 -10 33 5 10 10 18 21 18 25 0
4 4 11 9 16 5 5 6 3 2 -4 -15 -27 14 -9 124 78 130 102 163 133 108 100 -44
-26 -51 -22 -10 5 15 10 35 17 45 17 9 -1 17 2 17 8 0 5 5 9 10 9 15 0 80 61
75 71 -3 4 0 9 7 11 27 9 2 152 -27 153 -14 1 -52 24 -39 25 5 0 15 -5 22 -12
7 -7 12 -8 12 -2 0 19 -74 52 -117 52 -30 1 -54 -7 -85 -29 -40 -27 -123 -96
-88 -74 13 8 13 7 3 -6 -7 -9 -9 -20 -5 -25 4 -4 -1 -2 -11 5 -15 12 -22 10
-55 -17 -20 -17 -36 -35 -35 -41 2 -6 -4 -8 -14 -4 -12 5 -15 2 -11 -9 4 -10
1 -15 -10 -14 -9 0 -17 -4 -17 -11 0 -6 -4 -15 -9 -20 -5 -5 -6 -3 -2 5 11 19
-9 14 -27 -6 -10 -10 -14 -22 -10 -25 9 -10 25 -9 19 1 -2 4 4 8 15 8 24 0 24
-3 -1 -16 -13 -7 -26 -8 -37 -1 -13 7 -30 -1 -73 -34 -30 -24 -64 -51 -75 -62
-11 -10 -33 -26 -48 -36 -15 -10 -25 -23 -21 -29 4 -7 3 -8 -4 -4 -6 4 -19 0
-29 -8 -10 -8 -35 -28 -55 -44 -21 -16 -34 -33 -30 -37 4 -5 2 -5 -4 -2 -12 7
-87 -51 -80 -62 3 -4 0 -13 -6 -21 -8 -12 -9 -12 -4 3 7 23 -3 22 -29 -3 -21
-20 -34 -20 -411 -20 -214 0 -390 3 -391 7 -1 5 16 20 38 36 24 16 37 32 33
39 -4 7 -3 8 5 4 13 -8 104 62 96 74 -3 4 3 7 13 6 9 0 16 5 14 12 -1 8 2 11
8 7 12 -7 152 104 145 115 -3 5 0 12 6 16 8 4 9 3 5 -4 -4 -7 -3 -12 2 -12 14
0 34 27 25 32 -4 3 -2 3 6 1 13 -3 60 37 53 45 -2 2 0 7 4 10 4 4 4 1 0 -5
-12 -21 4 -15 38 14 17 14 30 30 28 35 -1 5 2 7 8 3 5 -3 45 22 88 57 86 70
97 79 264 208 65 50 117 96 115 103 -1 7 4 11 10 10 16 -4 45 40 49 75 11 95
-89 195 -179 178 -54 -10 -218 -133 -197 -146 8 -5 6 -9 -5 -13 -9 -4 -13 -3
-10 3 14 22 -11 5 -138 -93 -167 -130 -177 -139 -171 -149 3 -4 -1 -5 -9 -3
-7 3 -22 -4 -33 -16 -17 -20 -17 -22 -1 -16 9 4 17 2 17 -4 0 -7 -10 -9 -23
-5 -18 4 -34 -3 -63 -27 -21 -18 -60 -49 -85 -68 -25 -19 -44 -39 -42 -44 4
-15 -15 -41 -24 -32 -4 5 -1 12 7 17 8 6 11 10 5 10 -17 -1 -47 -28 -41 -38 3
-5 -2 -9 -11 -8 -10 0 -18 -5 -18 -13 0 -8 -7 -16 -15 -18 -13 -4 -13 -3 0 6
8 6 11 11 7 11 -4 0 -23 -12 -42 -27 -25 -20 -31 -30 -22 -36 8 -6 7 -7 -5 -4
-20 7 -194 -124 -190 -142 1 -7 -2 -10 -8 -6 -14 9 -48 -27 -45 -48 2 -9 -1
-15 -6 -11 -5 3 -7 10 -4 15 11 16 -11 9 -28 -9 -10 -10 -14 -22 -10 -26 5 -4
1 -6 -7 -5 -8 2 -41 -15 -72 -38 -60 -45 -87 -74 -50 -54 15 8 23 8 28 -1 4
-6 3 -8 -4 -4 -6 3 -14 2 -17 -4 -4 -6 -15 -8 -25 -5 -10 3 -21 1 -25 -5 -4
-7 -154 -10 -451 -10 -354 0 -444 3 -437 13 4 6 8 17 8 22 0 19 24 50 32 42 4
-5 0 -13 -10 -18 -9 -6 -17 -15 -17 -22 0 -6 10 -2 22 10 16 17 19 25 10 35
-8 11 -7 14 8 14 10 0 16 -5 13 -11 -3 -5 11 7 32 27 30 29 36 40 27 50 -8 11
-7 14 8 14 10 0 16 -5 12 -11 -3 -5 2 -4 11 4 9 7 14 18 10 24 -3 5 -2 7 4 4
6 -4 21 5 33 18 13 14 19 25 13 25 -6 0 -13 -6 -16 -12 -3 -7 -5 -4 -4 7 1 13
8 21 18 21 10 0 15 -4 13 -8 -3 -4 106 -8 242 -8 245 0 248 0 289 25 44 26 60
47 56 79 -2 10 2 16 7 12 11 -6 16 59 34 377 l12 228 152 77 c84 42 150 81
147 86 -3 5 -1 6 5 2 7 -4 21 -1 33 7 15 11 17 16 7 21 -7 3 -3 3 9 0 14 -3
39 4 65 19 24 14 124 66 223 117 435 222 490 252 488 260 -2 5 3 7 10 5 6 -3
35 8 63 24 59 34 86 79 86 146 0 53 -19 95 -34 74 -7 -10 -8 -8 -4 7 7 25 -14
46 -63 63 -24 8 -200 11 -589 11 -411 0 -553 3 -545 11 6 6 9 19 6 28 -5 13
-3 13 7 4 10 -9 40 15 142 118 71 71 126 134 123 139 -3 5 0 18 7 29 10 16 15
18 27 8 11 -9 15 -9 18 1 4 9 108 12 474 12 332 0 477 3 492 11 36 19 57 47
51 66 -5 15 -4 15 4 3 9 -12 13 -9 21 13 14 36 14 110 1 102 -6 -3 -7 1 -4 10
9 23 -21 62 -66 85 -37 19 -58 20 -335 20 -189 0 -295 4 -295 10 0 5 74 84
165 175 91 91 165 170 165 177 0 6 3 8 6 5 4 -3 15 5 26 19 16 20 18 27 7 40
-10 12 -10 15 2 12 21 -4 18 83 -5 116 -15 23 -20 25 -33 14 -14 -11 -15 -10
-9 9 6 18 1 25 -25 38 -30 16 -39 16 -84 0 -16 -5 -17 -5 -5 4 13 9 12 11 -3
11 -30 0 -65 -30 -259 -222 l-183 -181 -3 312 c-1 202 -6 310 -12 306 -6 -3
-10 2 -10 12 0 28 -30 65 -47 59 -8 -3 -11 -1 -8 4 8 14 -38 30 -83 30 -47 -1
-99 -27 -126 -63 -21 -28 -21 -40 -24 -501 l-3 -473 -174 -177 c-96 -98 -175
-172 -175 -164 -4 1145 -4 1135 -26 1165 -33 43 -81 67 -136 66 -57 -1 -100
-25 -92 -51 5 -14 4 -15 -5 -2 -14 19 -8 28 -138 -220 -56 -107 -100 -201 -98
-208 3 -7 1 -10 -5 -7 -5 3 -14 -4 -20 -16 -10 -17 -9 -20 1 -13 7 4 0 -9 -15
-29 -22 -29 -25 -39 -17 -56 15 -27 14 -39 -2 -17 -11 16 -15 13 -35 -23 -13
-23 -20 -41 -15 -41 4 0 3 -4 -3 -8 -18 -11 -75 -132 -69 -143 4 -5 2 -8 -3
-7 -11 3 -39 -48 -161 -289 l-82 -163 -42 0 c-23 0 -158 -7 -300 -15 -282 -16
-306 -21 -348 -78 -24 -32 -24 -35 -27 -288 l-3 -256 -39 -38 c-22 -22 -40
-44 -40 -50 0 -5 4 -4 9 3 6 10 10 10 21 -3 11 -13 10 -14 -5 -9 -11 5 -16 3
-12 -2 3 -5 -3 -10 -13 -10 -10 0 -16 5 -13 11 3 5 -10 -6 -30 -24 -21 -19
-37 -40 -37 -45 0 -6 4 -5 9 2 6 10 11 9 22 -4 9 -11 9 -15 2 -10 -7 4 -22 2
-34 -5 -17 -9 -20 -8 -14 3 4 7 -7 -1 -25 -19 -30 -29 -32 -34 -19 -50 13 -16
13 -17 -4 -4 -16 13 -17 43 -15 472 2 299 0 461 -7 464 -5 3 0 2 13 -1 12 -3
22 -1 22 5 0 6 17 29 37 52 30 33 34 42 22 51 -11 8 -11 9 3 5 11 -4 28 9 53
39 35 42 36 46 22 68 -12 18 -13 23 -2 23 8 0 14 -3 13 -6 -3 -29 3 -33 22
-16 11 10 20 24 20 32 0 7 5 13 11 13 6 0 8 7 5 16 -3 8 -2 13 3 9 13 -8 153
173 145 187 -4 6 -3 8 3 5 5 -3 27 17 49 46 21 29 47 58 57 66 10 7 16 20 13
28 -3 8 -2 12 3 9 7 -5 131 146 131 159 0 2 -8 2 -17 -2 -10 -3 -15 -3 -11 1
3 4 13 8 21 10 15 2 87 81 87 95 0 4 -5 12 -12 19 -9 9 -9 15 1 25 10 10 11 9
6 -4 -10 -28 15 -33 33 -8 9 13 16 27 14 32 -1 4 4 6 10 5 7 -2 12 3 10 10 -1
6 3 12 9 12 5 0 7 5 4 10 -4 6 -2 9 4 8 5 -2 20 11 33 28 13 18 45 59 71 93
27 35 45 66 41 73 -4 6 -3 8 3 5 12 -7 81 72 106 120 32 60 15 127 -45 179
-49 43 -107 51 -162 24 -41 -21 -129 -121 -129 -146 0 -7 -4 -11 -8 -9 -22 14
-35 -49 -15 -75 9 -13 9 -13 -5 -3 -9 7 -19 9 -24 5 -4 -4 -2 4 4 18 l12 25
-18 -25 c-10 -13 -25 -32 -33 -40 -9 -9 -29 -34 -45 -55 -17 -22 -42 -53 -57
-70 -22 -24 -25 -32 -15 -44 10 -12 9 -14 -4 -9 -20 8 -84 -66 -73 -84 4 -6 3
-8 -3 -5 -6 4 -18 -2 -28 -13 -10 -11 -14 -20 -10 -20 4 0 -2 -8 -14 -19 -12
-11 -19 -25 -15 -34 3 -9 -3 -24 -15 -36 -25 -25 -28 -16 -4 11 9 10 14 20 12
23 -7 6 -164 -194 -164 -209 0 -6 5 -10 12 -9 7 2 10 -4 6 -13 -5 -15 -7 -15
-15 0 -5 9 -14 14 -19 11 -5 -4 -7 -11 -3 -16 3 -5 0 -8 -7 -7 -6 2 -14 -3
-17 -11 -3 -9 0 -11 8 -6 9 5 11 4 6 -4 -4 -6 -11 -9 -15 -6 -13 7 -37 -27
-39 -53 -1 -17 3 -22 14 -18 8 3 12 2 9 -3 -3 -6 -14 -9 -24 -8 -16 1 -18 5
-9 22 11 20 11 20 -11 1 -11 -11 -21 -25 -21 -31 0 -7 -7 -15 -15 -19 -8 -3
-15 -10 -15 -16 0 -6 4 -9 8 -6 4 2 8 -4 8 -15 0 -18 -2 -18 -12 -5 -10 14
-13 15 -24 1 -7 -8 -15 -15 -19 -15 -3 0 -6 179 -6 399 0 261 3 397 10 395 6
-2 22 13 37 34 37 52 154 204 173 225 9 10 13 23 9 29 -4 6 -3 8 4 4 6 -3 21
8 33 26 13 18 26 35 29 38 15 14 90 109 90 114 0 4 -6 4 -12 0 -7 -4 -5 2 5
14 11 11 16 25 13 30 -3 5 1 9 9 9 13 0 13 -4 -1 -26 -9 -14 2 -6 25 19 22 25
40 51 41 58 0 6 5 12 11 12 6 0 8 7 5 16 -3 8 -2 13 3 10 5 -3 25 14 45 38 37
45 45 63 24 50 -7 -4 -8 -3 -4 5 4 6 11 9 16 6 12 -7 71 77 65 93 -2 7 0 10 5
7 6 -4 10 10 10 34 0 46 -9 73 -21 65 -5 -3 -7 1 -4 8 9 27 -58 81 -113 91
-33 7 -112 -17 -99 -29 3 -3 15 0 27 6 25 13 52 -1 29 -15 -8 -6 -10 -4 -4 5
6 10 4 11 -11 5 -10 -4 -28 -8 -40 -9 -23 -1 -58 -32 -50 -44 2 -4 0 -14 -6
-22 -8 -12 -9 -11 -4 4 7 19 6 19 -14 1 -11 -10 -18 -20 -15 -23 3 -3 -4 -12
-16 -20 -11 -8 -18 -20 -15 -28 3 -7 0 -16 -6 -20 -7 -5 -8 -2 -4 7 11 21 -39
-37 -100 -118 -31 -40 -53 -77 -49 -83 3 -5 0 -8 -7 -5 -8 3 -35 -24 -65 -66
l-53 -71 -1 359 c0 197 -2 374 -5 393 -6 48 -32 81 -85 107 -56 28 -84 28
-139 1z m-1630 -2214 c0 -8 4 -13 9 -10 5 3 8 0 7 -7 -2 -17 107 -226 116
-221 3 2 10 -1 14 -7 4 -8 3 -9 -4 -5 -20 12 -14 -1 49 -123 44 -85 65 -115
77 -113 13 2 14 1 4 -6 -11 -7 -8 -20 13 -63 15 -30 31 -59 36 -65 10 -13 18
-444 8 -444 -3 0 -83 77 -178 171 l-171 171 0 375 c0 247 3 372 10 368 6 -3
10 -13 10 -21z m3425 -12 c-2 -15 -4 -181 -4 -368 l-1 -342 -170 -171 c-94
-95 -175 -169 -181 -166 -7 5 -6 11 1 20 7 8 9 19 5 25 -4 6 -6 89 -5 185 0
118 -3 180 -11 193 -9 14 -9 23 0 38 10 17 10 16 5 -8 -3 -16 -2 -28 3 -28 14
0 35 49 27 62 -4 7 -2 8 4 4 7 -4 21 12 36 44 13 27 20 48 15 45 -5 -4 -6 1
-3 9 3 9 9 14 13 11 12 -7 51 83 45 102 -4 13 -3 14 3 5 7 -9 13 -6 22 14 11
26 11 26 -6 13 -16 -13 -17 -12 -5 3 8 10 10 23 6 30 -6 10 -5 11 7 1 13 -10
28 13 99 152 47 90 88 161 92 159 4 -2 5 -17 3 -32z m-2543 -768 l108 -6 2
-465 c3 -446 2 -465 -16 -475 -13 -7 -16 -7 -12 1 4 7 -62 81 -158 178 l-166
167 0 308 0 309 68 -5 c37 -3 115 -8 174 -12z m1878 -291 l0 -308 -66 -67
c-36 -38 -63 -72 -60 -77 8 -12 -4 -41 -16 -41 -6 0 -5 7 2 15 7 9 10 18 7 22
-4 3 -50 -38 -103 -92 -73 -73 -93 -99 -83 -106 16 -10 8 -12 -15 -3 -14 5
-16 57 -16 474 l0 468 118 6 c64 4 128 8 142 10 14 2 40 4 58 5 l32 1 0 -307z
m-2983 114 c11 -9 23 -15 26 -12 4 3 5 2 2 -2 -3 -4 63 -76 147 -160 83 -84
149 -155 146 -158 -3 -4 -98 -6 -210 -6 l-203 1 -97 50 c-59 30 -104 47 -115
44 -12 -4 -14 -3 -6 3 15 11 -402 227 -419 217 -6 -4 -8 -3 -4 4 3 6 -3 13
-14 17 -57 18 22 23 359 21 336 -1 371 -3 388 -19z m4537 10 l79 -2 -234 -119
c-310 -158 -314 -161 -312 -173 1 -5 -8 -8 -21 -6 -13 3 -30 -2 -39 -12 -10
-9 -17 -13 -17 -9 0 3 -7 0 -17 -7 -12 -10 -61 -15 -187 -17 -94 -2 -193 -2
-221 0 l-50 3 48 46 c32 32 45 52 41 63 -3 9 -2 16 4 16 5 0 12 9 15 20 3 11
10 20 17 20 6 0 2 -13 -10 -30 -41 -58 -6 -29 114 93 l121 122 295 -3 c162 -1
330 -3 374 -5z m-2974 -599 c0 -5 -6 -6 -12 -2 -7 4 14 -20 47 -54 56 -58 84
-82 55 -47 -10 13 -11 18 -1 28 10 9 11 8 6 -4 -4 -10 -1 -20 4 -24 6 -3 9
-11 5 -16 -9 -16 29 -40 39 -26 6 8 7 6 4 -5 -6 -19 15 -42 28 -30 5 4 5 2 2
-5 -9 -15 21 -45 36 -36 7 4 8 0 3 -13 -4 -10 -7 -125 -7 -254 1 -140 -3 -241
-9 -250 -7 -11 -10 -12 -10 -2 0 8 -50 64 -111 125 -106 107 -139 147 -122
147 4 0 7 102 5 227 -2 134 -6 222 -11 214 -7 -10 -9 -7 -8 11 2 18 6 24 16
20 9 -3 12 -1 8 5 -5 7 0 9 13 6 11 -3 20 -10 20 -15z m760 -255 l0 -245 -95
-91 c-53 -50 -94 -96 -91 -103 3 -8 -1 -11 -10 -7 -7 3 -14 1 -14 -5 0 -6 6
-12 13 -15 6 -2 0 -4 -15 -4 l-27 0 -3 246 -3 246 32 33 c18 19 30 39 26 45
-3 5 -1 7 4 4 6 -4 25 8 41 27 17 19 34 32 38 28 4 -4 4 2 0 13 -4 11 -4 16 0
12 10 -10 65 44 57 56 -4 6 1 8 11 4 14 -6 17 -3 12 9 -5 14 -4 15 9 4 13 -10
15 -50 15 -257z m-1536 58 c77 -77 144 -137 150 -134 6 3 8 2 3 -2 -4 -5 5
-21 20 -37 14 -15 24 -30 22 -33 -3 -2 -214 -5 -470 -5 l-464 -1 -6 88 c-6 82
-12 238 -10 256 1 4 139 7 309 7 l307 0 139 -139z m3032 82 c-3 -32 -8 -111
-12 -175 l-6 -118 -462 0 c-255 0 -465 3 -468 6 -3 3 69 81 161 173 l166 168
313 2 314 1 -6 -57z m-2484 -600 c-12 -2 -20 -9 -16 -14 3 -5 10 -6 16 -3 6 4
8 3 5 -2 -7 -12 61 -89 70 -80 4 3 -2 13 -13 21 -10 8 -14 15 -7 15 6 0 15 -5
18 -10 4 -6 11 -7 17 -4 7 4 7 0 -1 -13 -8 -17 -4 -26 28 -57 20 -20 40 -34
44 -31 4 3 5 2 2 -2 -3 -4 7 -19 22 -35 l27 -28 -255 0 -254 0 -117 115 c-66
65 -112 118 -105 120 7 3 122 6 257 8 135 1 254 3 265 3 14 1 14 0 -3 -3z
m1708 -9 c0 -14 -89 -102 -96 -95 -4 3 -4 -2 -1 -11 3 -10 3 -17 -2 -15 -4 1
-24 -13 -45 -31 -26 -23 -35 -37 -28 -44 7 -7 17 -6 31 1 12 7 21 9 21 7 0
-14 -42 -27 -54 -17 -10 8 -18 6 -31 -9 -17 -19 -31 -20 -277 -20 l-259 0 118
119 118 119 253 1 c138 1 252 -2 252 -5z m-467 -551 c207 0 239 -2 255 -17 10
-9 22 -13 27 -9 4 5 5 3 2 -3 -7 -13 28 -45 39 -36 4 4 4 2 1 -4 -4 -6 2 -19
12 -28 17 -16 18 -15 15 10 -1 14 0 23 4 20 3 -4 6 -20 7 -36 2 -31 32 -63 49
-53 5 4 6 1 3 -4 -8 -13 17 -36 27 -25 4 4 7 3 6 -3 -5 -22 1 -36 11 -29 7 4
10 1 7 -7 -4 -11 -51 -15 -250 -17 l-246 -2 -119 119 c-114 116 -144 153 -106
132 10 -5 125 -9 256 -8z m-1034 -2 c3 -1 0 -6 -6 -12 -6 -6 -9 -19 -5 -28 5
-13 3 -14 -10 -3 -14 11 -19 8 -38 -18 -12 -16 -16 -30 -10 -30 6 0 8 -5 4
-11 -4 -8 -9 -7 -14 2 -6 9 -18 2 -45 -26 -26 -26 -33 -40 -25 -45 8 -5 9 -10
2 -14 -6 -3 -12 0 -15 6 -3 8 -17 -1 -38 -24 l-35 -38 -245 0 c-135 0 -249 3
-252 7 -4 3 3 17 15 30 21 22 21 24 3 18 -15 -5 -17 -4 -6 3 8 6 21 8 29 4 11
-4 14 -1 9 12 -4 9 -3 15 2 12 5 -3 23 9 39 28 17 19 34 32 38 28 4 -4 4 1 1
10 -3 10 -3 17 2 15 11 -3 83 62 77 71 -3 5 479 8 523 3z m230 -482 l2 -238
-50 -55 c-27 -30 -53 -51 -57 -48 -4 4 -4 -1 -1 -10 3 -10 3 -17 -2 -15 -12 3
-83 -62 -77 -72 3 -5 -1 -14 -9 -21 -8 -7 -15 -9 -15 -4 0 4 -5 3 -12 -4 -7
-7 -16 -12 -20 -12 -4 0 -8 114 -8 253 l0 252 35 29 c23 20 33 35 30 47 -3 9
2 24 10 33 24 23 31 20 10 -4 -10 -11 -15 -23 -12 -26 3 -4 41 29 84 73 43 44
81 76 84 70 4 -5 7 -117 8 -248z m415 173 c9 -1 22 -3 30 -4 8 -1 12 -7 9 -14
-4 -11 -8 -11 -20 1 -13 14 -23 19 -23 12 0 -1 25 -27 56 -57 31 -30 54 -47
51 -38 -3 10 -2 20 3 23 5 3 7 -8 5 -24 -2 -19 1 -31 10 -35 12 -4 15 -51 17
-256 2 -137 -1 -251 -5 -253 -4 -1 -60 50 -123 113 l-115 115 1 234 c0 176 -3
237 -12 249 -10 12 -10 14 0 8 7 -4 12 -2 12 6 0 7 20 -8 44 -33 24 -25 51
-46 60 -47z m-1174 -252 c-12 -23 -25 -27 -16 -5 3 8 3 15 1 15 -13 0 -305
-302 -300 -310 3 -6 -1 -7 -9 -4 -9 3 -16 1 -16 -5 0 -6 5 -11 11 -11 5 0 7
-5 3 -11 -4 -8 -9 -7 -14 2 -7 10 -12 10 -23 1 -11 -9 -93 -12 -318 -10 l-303
3 2 45 c1 25 4 102 8 172 l6 128 472 3 c259 1 479 3 489 5 15 2 16 -1 7 -18z
m2794 -97 c3 -60 8 -138 10 -175 l5 -67 -319 -3 c-175 -2 -316 0 -313 5 2 4
-55 67 -128 140 -73 72 -148 149 -167 170 l-34 37 470 0 470 0 6 -107z m-2594
-592 l0 -469 -147 -6 c-82 -4 -159 -8 -173 -9 l-25 -2 -3 313 c-2 228 1 312 9
312 8 0 7 6 -2 17 -11 13 -11 17 -1 21 7 2 19 10 27 19 8 8 15 10 15 5 0 -5
-10 -17 -22 -25 -16 -11 -18 -16 -8 -16 8 0 83 69 165 154 83 84 153 154 158
154 4 1 7 -210 7 -468z m1564 339 c71 -71 133 -127 139 -123 5 3 7 1 3 -5 -3
-6 8 -25 25 -42 18 -17 35 -27 38 -22 7 11 3 -606 -4 -625 -2 -6 -14 -10 -27
-8 -13 2 -85 6 -161 10 -76 3 -144 8 -150 11 -9 3 -11 119 -9 469 1 256 6 465
10 465 4 0 66 -58 136 -130z m-2467 -277 c-4 -3 -1 -13 5 -21 10 -11 9 -17 -5
-27 -18 -13 -24 -31 -7 -20 6 4 5 -4 -1 -19 -7 -14 -18 -27 -25 -30 -20 -8
-17 4 3 20 10 7 15 16 11 20 -5 4 -49 -35 -98 -86 -50 -51 -88 -95 -86 -98 3
-3 14 1 23 9 15 11 15 10 -1 -9 -14 -16 -22 -19 -27 -10 -5 8 -25 -6 -63 -45
l-56 -57 -375 0 c-206 0 -375 2 -375 4 0 2 52 29 115 60 71 35 113 62 109 68
-4 7 -2 8 4 4 6 -4 66 21 133 55 89 45 118 64 108 71 -10 6 -7 7 8 3 34 -9 50
5 23 20 -15 8 -19 15 -11 19 6 4 11 3 11 -2 0 -18 30 -21 65 -6 22 9 33 19 29
26 -4 7 -3 8 4 4 6 -4 25 0 41 9 24 12 69 15 231 15 110 0 199 3 199 8 -2 13
1 22 8 22 3 0 3 -3 0 -7z m3768 -89 c71 -37 136 -72 144 -78 11 -8 13 -8 7 1
-5 9 -2 11 8 7 9 -3 14 -9 12 -13 -3 -4 79 -49 182 -101 177 -89 185 -94 152
-100 -19 -3 -188 -4 -376 -2 l-341 3 -170 169 c-94 93 -168 172 -165 175 3 3
98 5 211 5 l206 0 130 -66z m-3537 -607 c-7 -12 -11 -29 -9 -37 2 -8 0 -12 -4
-8 -11 11 -196 -358 -189 -379 4 -12 3 -14 -3 -6 -6 9 -28 -24 -68 -103 l-60
-115 -3 375 -2 375 151 151 c83 83 149 154 145 157 -3 3 -11 1 -19 -5 -10 -8
-13 -7 -13 7 0 19 26 23 38 7 3 -5 14 -1 25 9 17 18 18 12 21 -193 2 -154 -1
-219 -10 -235z m3078 133 c1 0 5 8 8 18 4 13 4 13 3 -3 -1 -11 2 -25 6 -32 4
-6 7 -166 7 -355 1 -388 0 -418 -7 -400 -2 6 -10 9 -15 6 -6 -4 -8 -2 -4 4 8
14 -163 354 -175 347 -5 -3 -6 2 -2 11 5 13 3 15 -7 9 -8 -5 -11 -4 -6 3 8 14
-28 84 -39 74 -5 -4 -5 -2 -1 5 6 12 -38 113 -50 113 -3 0 -3 -7 0 -16 3 -9 2
-12 -5 -9 -5 4 -7 15 -4 25 3 10 -3 35 -14 56 -18 34 -20 56 -20 237 0 110 3
205 6 210 3 5 76 -61 161 -147 86 -86 157 -156 158 -156z"/>
</g>
</svg>
